<svg version="1" xmlns="http://www.w3.org/2000/svg" width="256" height="256" viewBox="0 0 192.000000 192.000000"><path d="M63.4 24.4c1.1 18.7 1.7 27.1 2.1 28.3.2.7 0 1.5-.4 1.7-.4.3-8.1-2.4-17.1-6-9-3.6-16.6-6.2-17.1-5.7-.6.6-9.7 27.1-10.5 30.8-.2.5-2.5 7.6-5.2 15.7l-5 14.6 5.7 1.5c19.4 5.2 25.3 6.8 27.6 7.7l2.6 1-8.2 10c-4.6 5.6-9.3 11.2-10.5 12.5-2.9 3.1-6.7 8.5-6.3 8.9.2.2 8.7 6.3 18.9 13.6 10.2 7.4 22.1 16 26.5 19.1 6.1 4.5 8.3 5.5 9.1 4.6.6-.7 5-7.6 9.9-15.4 4.8-7.9 9.1-14.3 9.6-14.3s1.8 1.7 2.9 3.8c2.5 4.5 15.6 25.2 16.7 26.3.9.9 52.8-36.7 52.8-38.1 0-.7-19.4-26.5-22.3-29.5-1.3-1.5-2.3-1.1 22.6-8.1 7.2-2 13.2-4 13.2-4.4 0-.4-3.2-9.9-7.1-21.1-3.9-11.2-8.4-24.5-10.1-29.4-1.7-5-3.4-9.4-3.9-9.9-.8-.9-3.1-.2-11.5 3.5-2.2 1-6.3 2.7-9 3.8-2.7 1-6.5 2.6-8.6 3.5l-3.6 1.5.3-3.7c.2-2 .6-7.8.9-12.7.3-5 .9-12.2 1.2-16.1l.6-7H62.9l.5 9z"/></svg>